<mxfile host="app.diagrams.net" modified="2023-05-16T08:19:31.415Z" agent="Mozilla/5.0 (Windows NT 10.0; Win64; x64) AppleWebKit/537.36 (KHTML, like Gecko) Chrome/112.0.0.0 Safari/537.36 OPR/98.0.0.0" etag="cD-K9KLetfvK7YxGpzYu" version="21.3.2" type="device">
  <diagram id="Ws8APfDJXAumH7L3Mlcz" name="Страница 1">
    <mxGraphModel dx="1091" dy="1810" grid="1" gridSize="10" guides="1" tooltips="1" connect="1" arrows="1" fold="1" page="1" pageScale="1" pageWidth="827" pageHeight="1169" math="0" shadow="0">
      <root>
        <mxCell id="0" />
        <mxCell id="1" parent="0" />
        <object label="Customer" id="PdiB67UejZNL1BW5jbg_-1">
          <mxCell style="shape=umlActor;verticalLabelPosition=bottom;verticalAlign=top;html=1;outlineConnect=0;" parent="1" vertex="1">
            <mxGeometry x="70" y="-10" width="30" height="60" as="geometry" />
          </mxCell>
        </object>
        <mxCell id="PdiB67UejZNL1BW5jbg_-2" value="Employee&lt;br&gt;" style="shape=umlActor;verticalLabelPosition=bottom;verticalAlign=top;html=1;outlineConnect=0;" parent="1" vertex="1">
          <mxGeometry x="80" y="240" width="30" height="60" as="geometry" />
        </mxCell>
        <mxCell id="PdiB67UejZNL1BW5jbg_-4" value="Создать плейлист" style="ellipse;whiteSpace=wrap;html=1;" parent="1" vertex="1">
          <mxGeometry x="280" y="230" width="120" height="50" as="geometry" />
        </mxCell>
        <mxCell id="PdiB67UejZNL1BW5jbg_-6" value="" style="endArrow=none;html=1;rounded=0;entryX=0;entryY=0.5;entryDx=0;entryDy=0;" parent="1" target="PdiB67UejZNL1BW5jbg_-4" edge="1">
          <mxGeometry width="50" height="50" relative="1" as="geometry">
            <mxPoint x="120" y="270" as="sourcePoint" />
            <mxPoint x="180" y="240" as="targetPoint" />
          </mxGeometry>
        </mxCell>
        <mxCell id="PdiB67UejZNL1BW5jbg_-7" value="" style="endArrow=none;html=1;rounded=0;entryX=0;entryY=0.5;entryDx=0;entryDy=0;" parent="1" target="yoxCkj50m3Vkq2hQjuCR-8" edge="1">
          <mxGeometry width="50" height="50" relative="1" as="geometry">
            <mxPoint x="120" y="30" as="sourcePoint" />
            <mxPoint x="200" y="105" as="targetPoint" />
          </mxGeometry>
        </mxCell>
        <mxCell id="PdiB67UejZNL1BW5jbg_-8" value="Добавить/нет предложенный трек" style="ellipse;whiteSpace=wrap;html=1;" parent="1" vertex="1">
          <mxGeometry x="280" y="330" width="120" height="50" as="geometry" />
        </mxCell>
        <mxCell id="PdiB67UejZNL1BW5jbg_-9" value="" style="endArrow=none;html=1;rounded=0;entryX=0;entryY=0.5;entryDx=0;entryDy=0;" parent="1" target="PdiB67UejZNL1BW5jbg_-8" edge="1">
          <mxGeometry width="50" height="50" relative="1" as="geometry">
            <mxPoint x="120" y="270" as="sourcePoint" />
            <mxPoint x="220" y="230" as="targetPoint" />
          </mxGeometry>
        </mxCell>
        <mxCell id="PdiB67UejZNL1BW5jbg_-10" value="Добавить трек в плейлист" style="ellipse;whiteSpace=wrap;html=1;" parent="1" vertex="1">
          <mxGeometry x="290" width="120" height="40" as="geometry" />
        </mxCell>
        <mxCell id="PdiB67UejZNL1BW5jbg_-11" value="" style="endArrow=none;html=1;rounded=0;entryX=0;entryY=0.5;entryDx=0;entryDy=0;" parent="1" target="PdiB67UejZNL1BW5jbg_-10" edge="1">
          <mxGeometry width="50" height="50" relative="1" as="geometry">
            <mxPoint x="120" y="30" as="sourcePoint" />
            <mxPoint x="240" y="50" as="targetPoint" />
          </mxGeometry>
        </mxCell>
        <mxCell id="PdiB67UejZNL1BW5jbg_-14" value="Добавить альбом" style="ellipse;whiteSpace=wrap;html=1;" parent="1" vertex="1">
          <mxGeometry x="280" y="390" width="120" height="50" as="geometry" />
        </mxCell>
        <mxCell id="PdiB67UejZNL1BW5jbg_-15" value="" style="endArrow=none;html=1;rounded=0;entryX=0;entryY=0.5;entryDx=0;entryDy=0;" parent="1" target="PdiB67UejZNL1BW5jbg_-14" edge="1">
          <mxGeometry width="50" height="50" relative="1" as="geometry">
            <mxPoint x="120" y="270" as="sourcePoint" />
            <mxPoint x="210" y="260" as="targetPoint" />
          </mxGeometry>
        </mxCell>
        <mxCell id="PdiB67UejZNL1BW5jbg_-16" value="Удалить трек из плейлиста" style="ellipse;whiteSpace=wrap;html=1;" parent="1" vertex="1">
          <mxGeometry x="290" y="50" width="120" height="60" as="geometry" />
        </mxCell>
        <mxCell id="PdiB67UejZNL1BW5jbg_-17" value="" style="endArrow=none;html=1;rounded=0;entryX=0;entryY=0.5;entryDx=0;entryDy=0;" parent="1" target="PdiB67UejZNL1BW5jbg_-16" edge="1">
          <mxGeometry width="50" height="50" relative="1" as="geometry">
            <mxPoint x="120" y="30" as="sourcePoint" />
            <mxPoint x="350" y="130" as="targetPoint" />
          </mxGeometry>
        </mxCell>
        <mxCell id="PdiB67UejZNL1BW5jbg_-19" value="Вход в аккаунт" style="ellipse;whiteSpace=wrap;html=1;" parent="1" vertex="1">
          <mxGeometry x="680" y="200" width="120" height="60" as="geometry" />
        </mxCell>
        <mxCell id="PdiB67UejZNL1BW5jbg_-20" value="" style="endArrow=none;dashed=1;html=1;rounded=0;exitX=1;exitY=0.5;exitDx=0;exitDy=0;entryX=0;entryY=0.5;entryDx=0;entryDy=0;" parent="1" source="PdiB67UejZNL1BW5jbg_-10" target="PdiB67UejZNL1BW5jbg_-19" edge="1">
          <mxGeometry width="50" height="50" relative="1" as="geometry">
            <mxPoint x="400" y="100" as="sourcePoint" />
            <mxPoint x="575.5922593381979" y="225.42304238442705" as="targetPoint" />
          </mxGeometry>
        </mxCell>
        <mxCell id="PdiB67UejZNL1BW5jbg_-21" value="" style="endArrow=none;dashed=1;html=1;rounded=0;exitX=1;exitY=0.5;exitDx=0;exitDy=0;entryX=0;entryY=0.5;entryDx=0;entryDy=0;" parent="1" source="PdiB67UejZNL1BW5jbg_-16" target="PdiB67UejZNL1BW5jbg_-19" edge="1">
          <mxGeometry width="50" height="50" relative="1" as="geometry">
            <mxPoint x="410" y="90" as="sourcePoint" />
            <mxPoint x="620" y="350" as="targetPoint" />
          </mxGeometry>
        </mxCell>
        <mxCell id="PdiB67UejZNL1BW5jbg_-22" value="" style="endArrow=none;dashed=1;html=1;rounded=0;exitX=1;exitY=0.5;exitDx=0;exitDy=0;entryX=0;entryY=0.5;entryDx=0;entryDy=0;" parent="1" source="PdiB67UejZNL1BW5jbg_-4" target="PdiB67UejZNL1BW5jbg_-19" edge="1">
          <mxGeometry width="50" height="50" relative="1" as="geometry">
            <mxPoint x="420" y="100" as="sourcePoint" />
            <mxPoint x="619.9999999999968" y="60" as="targetPoint" />
          </mxGeometry>
        </mxCell>
        <mxCell id="PdiB67UejZNL1BW5jbg_-23" value="" style="endArrow=none;dashed=1;html=1;rounded=0;exitX=1;exitY=0.5;exitDx=0;exitDy=0;entryX=0;entryY=0.5;entryDx=0;entryDy=0;" parent="1" source="PdiB67UejZNL1BW5jbg_-8" target="PdiB67UejZNL1BW5jbg_-19" edge="1">
          <mxGeometry width="50" height="50" relative="1" as="geometry">
            <mxPoint x="430" y="110" as="sourcePoint" />
            <mxPoint x="629.9999999999968" y="70" as="targetPoint" />
          </mxGeometry>
        </mxCell>
        <mxCell id="PdiB67UejZNL1BW5jbg_-24" value="" style="endArrow=none;dashed=1;html=1;rounded=0;exitX=1;exitY=0.5;exitDx=0;exitDy=0;entryX=0;entryY=0.5;entryDx=0;entryDy=0;" parent="1" source="PdiB67UejZNL1BW5jbg_-14" target="PdiB67UejZNL1BW5jbg_-19" edge="1">
          <mxGeometry width="50" height="50" relative="1" as="geometry">
            <mxPoint x="440" y="120" as="sourcePoint" />
            <mxPoint x="639.9999999999968" y="80" as="targetPoint" />
          </mxGeometry>
        </mxCell>
        <mxCell id="PdiB67UejZNL1BW5jbg_-29" value="&amp;lt;включения&amp;gt;" style="text;html=1;strokeColor=none;fillColor=none;align=center;verticalAlign=middle;whiteSpace=wrap;rounded=0;" parent="1" vertex="1">
          <mxGeometry x="550" y="300" width="70" height="30" as="geometry" />
        </mxCell>
        <mxCell id="PdiB67UejZNL1BW5jbg_-31" value="Логин если есть&lt;br&gt;аккаунт в базе" style="ellipse;whiteSpace=wrap;html=1;" parent="1" vertex="1">
          <mxGeometry x="950" y="170" width="140" height="50" as="geometry" />
        </mxCell>
        <mxCell id="PdiB67UejZNL1BW5jbg_-32" value="Регистрация если&lt;br&gt;аккаунта в базе нету" style="ellipse;whiteSpace=wrap;html=1;" parent="1" vertex="1">
          <mxGeometry x="950" y="270" width="140" height="50" as="geometry" />
        </mxCell>
        <mxCell id="PdiB67UejZNL1BW5jbg_-33" value="" style="endArrow=none;dashed=1;html=1;rounded=0;entryX=1;entryY=0.5;entryDx=0;entryDy=0;exitX=0;exitY=0.5;exitDx=0;exitDy=0;" parent="1" source="PdiB67UejZNL1BW5jbg_-31" target="PdiB67UejZNL1BW5jbg_-19" edge="1">
          <mxGeometry width="50" height="50" relative="1" as="geometry">
            <mxPoint x="470" y="510" as="sourcePoint" />
            <mxPoint x="520" y="460" as="targetPoint" />
          </mxGeometry>
        </mxCell>
        <mxCell id="PdiB67UejZNL1BW5jbg_-34" value="" style="endArrow=none;dashed=1;html=1;rounded=0;entryX=1;entryY=0.5;entryDx=0;entryDy=0;exitX=0;exitY=0.5;exitDx=0;exitDy=0;" parent="1" source="PdiB67UejZNL1BW5jbg_-32" target="PdiB67UejZNL1BW5jbg_-19" edge="1">
          <mxGeometry width="50" height="50" relative="1" as="geometry">
            <mxPoint x="560" y="474.9999999999999" as="sourcePoint" />
            <mxPoint x="466.42640687119297" y="471.21320343559637" as="targetPoint" />
          </mxGeometry>
        </mxCell>
        <mxCell id="PdiB67UejZNL1BW5jbg_-35" value="&amp;lt;расширение&amp;gt;" style="text;html=1;strokeColor=none;fillColor=none;align=center;verticalAlign=middle;whiteSpace=wrap;rounded=0;" parent="1" vertex="1">
          <mxGeometry x="840" y="280" width="60" height="30" as="geometry" />
        </mxCell>
        <mxCell id="yoxCkj50m3Vkq2hQjuCR-1" value="&amp;lt;расширение&amp;gt;" style="text;html=1;strokeColor=none;fillColor=none;align=center;verticalAlign=middle;whiteSpace=wrap;rounded=0;" vertex="1" parent="1">
          <mxGeometry x="840" y="170" width="60" height="30" as="geometry" />
        </mxCell>
        <mxCell id="yoxCkj50m3Vkq2hQjuCR-5" value="Предложить трек" style="ellipse;whiteSpace=wrap;html=1;" vertex="1" parent="1">
          <mxGeometry x="290" y="-60" width="120" height="40" as="geometry" />
        </mxCell>
        <mxCell id="yoxCkj50m3Vkq2hQjuCR-6" value="" style="endArrow=none;html=1;rounded=0;entryX=0;entryY=0.5;entryDx=0;entryDy=0;" edge="1" parent="1" target="yoxCkj50m3Vkq2hQjuCR-5">
          <mxGeometry width="50" height="50" relative="1" as="geometry">
            <mxPoint x="120" y="30" as="sourcePoint" />
            <mxPoint x="300" y="20" as="targetPoint" />
          </mxGeometry>
        </mxCell>
        <mxCell id="yoxCkj50m3Vkq2hQjuCR-7" value="" style="endArrow=none;dashed=1;html=1;rounded=0;exitX=1;exitY=0.5;exitDx=0;exitDy=0;entryX=0;entryY=0.5;entryDx=0;entryDy=0;" edge="1" parent="1" source="yoxCkj50m3Vkq2hQjuCR-5" target="PdiB67UejZNL1BW5jbg_-19">
          <mxGeometry width="50" height="50" relative="1" as="geometry">
            <mxPoint x="420" y="20" as="sourcePoint" />
            <mxPoint x="690" y="240" as="targetPoint" />
          </mxGeometry>
        </mxCell>
        <mxCell id="yoxCkj50m3Vkq2hQjuCR-8" value="Фильтрация треков" style="ellipse;whiteSpace=wrap;html=1;" vertex="1" parent="1">
          <mxGeometry x="280" y="170" width="120" height="50" as="geometry" />
        </mxCell>
        <mxCell id="yoxCkj50m3Vkq2hQjuCR-10" value="" style="endArrow=none;html=1;rounded=0;entryX=0;entryY=0.5;entryDx=0;entryDy=0;" edge="1" parent="1" target="yoxCkj50m3Vkq2hQjuCR-8">
          <mxGeometry width="50" height="50" relative="1" as="geometry">
            <mxPoint x="120" y="270" as="sourcePoint" />
            <mxPoint x="300" y="255" as="targetPoint" />
          </mxGeometry>
        </mxCell>
        <mxCell id="yoxCkj50m3Vkq2hQjuCR-11" value="" style="endArrow=none;html=1;rounded=0;entryX=0;entryY=0.5;entryDx=0;entryDy=0;" edge="1" parent="1" target="PdiB67UejZNL1BW5jbg_-4">
          <mxGeometry width="50" height="50" relative="1" as="geometry">
            <mxPoint x="120" y="30" as="sourcePoint" />
            <mxPoint x="300" y="195" as="targetPoint" />
          </mxGeometry>
        </mxCell>
        <mxCell id="yoxCkj50m3Vkq2hQjuCR-12" value="" style="endArrow=none;dashed=1;html=1;rounded=0;exitX=1;exitY=0.5;exitDx=0;exitDy=0;entryX=0;entryY=0.5;entryDx=0;entryDy=0;" edge="1" parent="1" source="yoxCkj50m3Vkq2hQjuCR-8" target="PdiB67UejZNL1BW5jbg_-19">
          <mxGeometry width="50" height="50" relative="1" as="geometry">
            <mxPoint x="410" y="265" as="sourcePoint" />
            <mxPoint x="690" y="240" as="targetPoint" />
          </mxGeometry>
        </mxCell>
      </root>
    </mxGraphModel>
  </diagram>
</mxfile>
